<svg width="20" height="20" viewBox="0 0 20 20" fill="none" xmlns="http://www.w3.org/2000/svg">
<g clip-path="url(#clip0_9164_3049)">
<path d="M12.2472 12.6531C13.0327 11.3566 13.4879 9.81664 13.4879 8.15488C13.4879 5.26113 12.0955 2.7112 9.99786 1.25C7.90025 2.7112 6.50779 5.26113 6.50779 8.15488C6.50779 9.81664 6.96302 11.3566 7.7485 12.6531M13.4555 8.80687C13.4555 8.80687 16.9724 8.96445 16.1155 13.742C14.9729 13.1905 13.6251 12.7894 12.1434 12.596C11.4561 12.5028 10.742 12.4527 10.0012 12.4527C9.2603 12.4527 8.54622 12.5028 7.85892 12.596C6.3772 12.7894 5.02938 13.1976 3.88685 13.742C3.02103 8.96445 6.5468 8.81403 6.5468 8.81403M11.1562 7.22912C11.1562 7.89917 10.6205 8.44236 9.95965 8.44236C9.2988 8.44236 8.76308 7.89917 8.76308 7.22912C8.76308 6.55907 9.2988 6.01589 9.95965 6.01589C10.6205 6.01589 11.1562 6.55907 11.1562 7.22912ZM10.069 18.75C10.069 18.75 11.3824 17.3748 11.375 16.064C11.375 15.3692 10.7929 14.8105 10.069 14.8105C9.34515 14.8105 8.76308 15.3692 8.76308 16.064C8.76308 17.3748 10.069 18.75 10.069 18.75Z" stroke="currentColor" stroke-width="1.5" stroke-miterlimit="10"/>
</g>
<defs>
<clipPath id="clip0_9164_3049">
<path d="M0 10C0 4.47715 4.47715 0 10 0C15.5228 0 20 4.47715 20 10C20 15.5228 15.5228 20 10 20C4.47715 20 0 15.5228 0 10Z" fill="white"/>
</clipPath>
</defs>
</svg>
