<svg width="24" height="24" viewBox="0 0 24 24" fill="none" xmlns="http://www.w3.org/2000/svg">
<path d="M20.5364 4.68885C20.1222 4.68885 19.7864 5.02463 19.7864 5.43885C19.7864 5.85306 20.1222 6.18885 20.5364 6.18885V5.43885V4.68885ZM22.0005 6.18885C22.4147 6.18885 22.7505 5.85306 22.7505 5.43885C22.7505 5.02463 22.4147 4.68885 22.0005 4.68885V5.43885V6.18885ZM17.7354 1C17.7354 0.585786 17.3996 0.25 16.9854 0.25C16.5711 0.25 16.2354 0.585786 16.2354 1H16.9854H17.7354ZM16.2354 2.46404C16.2354 2.87825 16.5711 3.21404 16.9854 3.21404C17.3996 3.21404 17.7354 2.87825 17.7354 2.46404H16.9854H16.2354ZM21.2142 2.4181C21.5071 2.12521 21.5071 1.65033 21.2142 1.35744C20.9213 1.06455 20.4465 1.06455 20.1536 1.35744L20.6839 1.88777L21.2142 2.4181ZM19.1183 2.39267C18.8254 2.68556 18.8254 3.16044 19.1183 3.45333C19.4112 3.74622 19.8861 3.74622 20.179 3.45333L19.6487 2.923L19.1183 2.39267ZM9.65 9.74913C9.65 10.1633 9.98579 10.4991 10.4 10.4991C10.8142 10.4991 11.15 10.1633 11.15 9.74913H10.4H9.65ZM6.45 12C6.45 12.4142 6.78579 12.75 7.2 12.75C7.61421 12.75 7.95 12.4142 7.95 12H7.2H6.45ZM12.85 10.6667C12.85 11.0809 13.1858 11.4167 13.6 11.4167C14.0142 11.4167 14.35 11.0809 14.35 10.6667H13.6H12.85ZM16.0595 12.4444C16.0595 12.8587 16.3952 13.1944 16.8095 13.1944C17.2237 13.1944 17.5595 12.8587 17.5595 12.4444H16.8095H16.0595ZM20.5364 5.43885V6.18885H22.0005V5.43885V4.68885H20.5364V5.43885ZM16.9854 1H16.2354V2.46404H16.9854H17.7354V1H16.9854ZM20.6839 1.88777L20.1536 1.35744L19.1183 2.39267L19.6487 2.923L20.179 3.45333L21.2142 2.4181L20.6839 1.88777ZM7.2 6.4158H7.95C7.95 5.99068 8.3105 5.61024 8.8 5.61024V4.86024V4.11024C7.52219 4.11024 6.45 5.1227 6.45 6.4158H7.2ZM8.8 4.86024V5.61024C9.2895 5.61024 9.65 5.99068 9.65 6.4158H10.4H11.15C11.15 5.1227 10.0778 4.11024 8.8 4.11024V4.86024ZM7.2 6.4158H6.45V10.4444H7.2H7.95V6.4158H7.2ZM10.4 5.55556H11.15C11.15 5.13044 11.5105 4.75 12 4.75V4V3.25C10.7222 3.25 9.65 4.26246 9.65 5.55556H10.4ZM12 4V4.75C12.4895 4.75 12.85 5.13044 12.85 5.55556H13.6H14.35C14.35 4.26246 13.2778 3.25 12 3.25V4ZM13.6 5.55556H12.85V7.77778H13.6H14.35V5.55556H13.6ZM10.4 5.55556H9.65V6.4158H10.4H11.15V5.55556H10.4ZM16.8 12.8889H16.05C16.05 15.298 13.6543 17.4722 10.4 17.4722V18.2222V18.9722C14.215 18.9722 17.55 16.3709 17.55 12.8889H16.8ZM10.4 18.2222V17.4722C9.85422 17.4722 9.32787 17.4093 8.83071 17.2924L8.65912 18.0225L8.48753 18.7526C9.09737 18.896 9.73889 18.9722 10.4 18.9722V18.2222ZM8.65912 18.0225L8.83071 17.2924C6.38393 16.7174 4.75 14.8927 4.75 12.8889H4H3.25C3.25 15.7704 5.55711 18.0639 8.48753 18.7526L8.65912 18.0225ZM4 10.4444H4.75C4.75 10.0193 5.1105 9.63889 5.6 9.63889V8.88889V8.13889C4.32219 8.13889 3.25 9.15135 3.25 10.4444H4ZM5.6 8.88889V9.63889C6.0895 9.63889 6.45 10.0193 6.45 10.4444H7.2H7.95C7.95 9.15135 6.87781 8.13889 5.6 8.13889V8.88889ZM13.6 7.77778H14.35C14.35 7.35266 14.7105 6.97222 15.2 6.97222V6.22222V5.47222C13.9222 5.47222 12.85 6.48468 12.85 7.77778H13.6ZM15.2 6.22222V6.97222C15.6895 6.97222 16.05 7.35266 16.05 7.77778H16.8H17.55C17.55 6.48468 16.4778 5.47222 15.2 5.47222V6.22222ZM4 10.4444H3.25V12.8889H4H4.75V10.4444H4ZM16.8 7.77778H16.05V12.8889H16.8H17.55V7.77778H16.8ZM20 14.6667H19.25C19.25 17.0776 16.8605 19.25 13.6189 19.25V20V20.75C17.4257 20.75 20.75 18.1468 20.75 14.6667H20ZM16.8095 9.55556H17.5595C17.5595 9.12837 17.92 8.75 18.4047 8.75V8V7.25C17.1274 7.25 16.0595 8.26452 16.0595 9.55556H16.8095ZM18.4047 8V8.75C18.8895 8.75 19.25 9.12837 19.25 9.55556H20H20.75C20.75 8.26452 19.682 7.25 18.4047 7.25V8ZM16.8095 9.55556H16.0595V12.4444H16.8095H17.5595V9.55556H16.8095ZM20 9.55556H19.25V14.6667H20H20.75V9.55556H20ZM13.6189 20V19.25C11.8042 19.25 10.2161 18.5507 9.19752 17.5004L8.65912 18.0225L8.12071 18.5447C9.44193 19.9071 11.4282 20.75 13.6189 20.75V20ZM8.65912 18.0225L9.19753 17.5004C9.1718 17.4739 9.14645 17.4471 9.12149 17.4202L8.57143 17.9301L8.02137 18.4399C8.05407 18.4752 8.08719 18.5101 8.12071 18.5447L8.65912 18.0225ZM10.4 6.4158H9.65V9.74913H10.4H11.15V6.4158H10.4ZM7.2 10.4444H6.45V12H7.2H7.95V10.4444H7.2ZM13.6 7.77778H12.85V10.6667H13.6H14.35V7.77778H13.6Z" fill="#59524D"/>
</svg>
